<svg width="654" height="150" viewBox="0 0 654 150" fill="none" xmlns="http://www.w3.org/2000/svg">
<path d="M25.1738 0H0V147.663H91.3237V126.097H25.1738V0Z" fill="#F0F0F0"/>
<path d="M132.878 67.2222H108.485V147.656H132.878V67.2222Z" fill="#F0F0F0"/>
<path d="M204.685 144.742L173.659 42.9324H149.267L181.855 147.658H227.514L260.103 42.9324H235.514L204.685 144.742Z" fill="#F0F0F0"/>
<path d="M320.616 40.6116C289 40.6116 268.902 63.1521 268.902 95.2079C268.902 127.074 288.415 150 320.616 150C345.199 150 362.958 139.119 369.592 116.774H344.788C341.084 126.878 334.248 132.912 320.784 132.912C305.954 132.912 295.616 122.613 293.665 102.412H371.328C371.699 99.8368 371.893 97.2391 371.907 94.6374C371.913 61.9821 351.619 40.6116 320.616 40.6116ZM293.856 85.4909C296.397 66.6505 306.348 57.7115 320.616 57.7115C335.637 57.7115 345.784 68.7829 346.959 85.4909H293.856Z" fill="#F0F0F0"/>
<path d="M514.545 0H482.934L421.664 67.6158V0H396.49V147.663H421.664V73.0564L489.18 147.663H521.375L450.739 69.9442L514.545 0Z" fill="#F0F0F0"/>
<path d="M556.682 42.9324H532.29V123.366H556.682V42.9324Z" fill="#F0F0F0"/>
<path d="M108.488 42.9324H84.0957V67.2192H108.488V42.9324Z" fill="#F0F0F0"/>
<path d="M581.081 123.375H556.688V147.662H581.081V123.375Z" fill="#F0F0F0"/>
<path d="M653.966 123.375H629.573V147.662H653.966V123.375Z" fill="#F0F0F0"/>
<path d="M653.962 67.2239V42.9371H629.57V0H605.178V42.9371H580.785V67.2239H605.178V123.376H629.57V67.2239H653.962Z" fill="#F0F0F0"/>
</svg>
